<svg xmlns="http://www.w3.org/2000/svg" id="Layer_2" viewBox="0 0 140.75 25.77">
  <g id="Content">
    <rect y="6.98" width="5.03" height="18.32" />
    <rect y="0" width="5.03" height="4.15" />
    <path
      d="M24.84,8.56c-.5-.65-1.18-1.16-2.04-1.52-.86-.37-1.97-.55-3.32-.55-1.06,0-2.1.24-3.12.73-1.02.48-1.84,1.26-2.48,2.32h-.11v-2.55h-4.79v18.32h5.03v-9.6c0-1.87.31-3.21.92-4.02.61-.82,1.61-1.22,2.98-1.22,1.2,0,2.04.37,2.51,1.12.47.74.71,1.87.71,3.38v10.35h5.03v-11.27c0-1.13-.1-2.17-.3-3.1-.2-.93-.55-1.72-1.05-2.37" />
    <path
      d="M45.86,8.56c-.5-.65-1.18-1.16-2.04-1.52-.86-.37-1.97-.55-3.31-.55-1.06,0-2.1.24-3.12.73-1.02.48-1.84,1.26-2.48,2.32h-.11v-2.55h-4.78v18.32h5.03v-9.6c0-1.87.31-3.21.92-4.02.61-.82,1.61-1.22,2.98-1.22,1.2,0,2.05.37,2.52,1.12.47.74.71,1.87.71,3.38v10.35h5.03v-11.27c0-1.13-.1-2.17-.3-3.1-.2-.93-.55-1.72-1.04-2.37" />
    <path
      d="M66.84,9.13c-.83-.84-1.82-1.49-2.99-1.95-1.17-.46-2.47-.69-3.91-.69s-2.74.23-3.9.69c-1.16.46-2.15,1.11-2.98,1.95-.83.84-1.47,1.86-1.91,3.05-.45,1.19-.67,2.52-.67,3.99s.23,2.79.67,3.97c.45,1.18,1.09,2.19,1.91,3.03.83.84,1.82,1.48,2.98,1.93,1.16.45,2.46.67,3.9.67s2.75-.22,3.91-.67c1.17-.45,2.17-1.09,2.99-1.93.83-.84,1.47-1.85,1.91-3.03.45-1.18.67-2.5.67-3.97s-.23-2.79-.67-3.99c-.45-1.19-1.09-2.21-1.91-3.05M64.18,18.31c-.14.7-.38,1.32-.73,1.88-.34.55-.8,1-1.38,1.33-.58.33-1.29.5-2.14.5s-1.56-.17-2.13-.5c-.57-.33-1.02-.77-1.36-1.33-.34-.56-.59-1.18-.73-1.88-.14-.7-.21-1.41-.21-2.14s.07-1.45.21-2.16c.14-.71.38-1.33.73-1.88.34-.54.8-.98,1.36-1.33.57-.34,1.28-.51,2.13-.51s1.56.17,2.14.51c.58.34,1.04.79,1.38,1.33.34.54.58,1.17.73,1.88.14.71.21,1.43.21,2.16s-.07,1.45-.21,2.14" />
    <polygon
      points="79.5 19.49 79.43 19.49 75.57 6.98 70.29 6.98 76.56 25.3 82.16 25.3 88.36 6.98 83.37 6.98 79.5 19.49" />
    <path
      d="M104.24,7.44c-.78-.38-1.64-.63-2.59-.76-.95-.13-1.88-.19-2.8-.19-1.01,0-2.02.1-3.03.3-1,.2-1.91.54-2.71,1.01-.8.47-1.47,1.1-1.99,1.88-.52.78-.81,1.76-.89,2.94h5.03c.09-.99.43-1.7.99-2.13.57-.43,1.35-.64,2.34-.64.45,0,.87.03,1.26.09.39.06.73.18,1.03.35.29.18.53.43.71.74.18.32.26.75.26,1.29.02.52-.13.92-.46,1.19-.33.27-.78.48-1.35.62-.57.14-1.22.25-1.95.32-.73.07-1.48.17-2.23.28-.76.12-1.51.28-2.25.48-.74.2-1.41.5-1.99.9-.58.4-1.05.94-1.42,1.61-.37.67-.55,1.53-.55,2.57,0,.95.16,1.76.48,2.44.32.69.76,1.25,1.33,1.7.57.45,1.23.78,1.98.99.76.21,1.57.32,2.45.32,1.13,0,2.24-.16,3.33-.5,1.09-.33,2.03-.91,2.83-1.74v1.77h4.82v-13.61c0-1.11-.25-2-.74-2.67-.5-.67-1.14-1.2-1.91-1.58M101.86,18.22c0,.28-.03.66-.09,1.13-.06.47-.22.94-.48,1.4-.26.46-.66.86-1.21,1.19-.54.33-1.31.49-2.3.49-.4,0-.79-.03-1.17-.1-.38-.07-.71-.2-.99-.37-.28-.18-.51-.42-.67-.73-.17-.31-.25-.69-.25-1.14,0-.47.08-.86.25-1.17.16-.31.38-.56.66-.76.27-.2.59-.36.96-.48.37-.12.74-.21,1.12-.28.4-.07.8-.13,1.2-.18.4-.05.79-.11,1.15-.18.37-.07.71-.16,1.03-.27.32-.11.58-.25.79-.44v1.88Z" />
    <path
      d="M114.99,10.38h-.07v-3.4h-4.79v18.32h5.03v-9.47c0-3.22,1.63-4.5,6.77-4.5v-4.36c-2.06,0-5.65-.04-6.95,3.4" />
    <path
      d="M133.21,11.34v-4.36h-3.69V1.49l-5.03,2.02v17.65c0,.92.15,1.66.46,2.23.31.57.72,1,1.26,1.31.53.31,1.15.51,1.84.62.7.11,1.44.16,2.22.16.5,0,1-.01,1.52-.04.52-.02.99-.07,1.42-.14v-3.9c-.24.05-.48.08-.74.11-.26.02-.53.04-.81.04-.85,0-1.42-.14-1.7-.42-.28-.28-.42-.85-.42-1.7v-8.08h3.69Z" />
    <path
      d="M138.32,11.95c-1.36,0-2.44-1.1-2.44-2.46s1.08-2.46,2.44-2.46,2.44,1.1,2.44,2.46-1.08,2.46-2.44,2.46M138.32,7.33c-1.19,0-2.12.97-2.12,2.17s.93,2.16,2.12,2.16,2.12-.96,2.12-2.16-.93-2.17-2.12-2.17M138.79,9.74l.48,1.04h-.36l-.44-.98h-.64v.98h-.31v-2.61h.91c.58,0,.87.39.87.82,0,.33-.17.62-.5.74M138.42,8.49h-.6v1h.59c.4,0,.56-.25.56-.5s-.15-.5-.55-.5" />
  </g>
</svg>
