<?xml version="1.0" encoding="UTF-8"?><svg id="Layer_2" xmlns="http://www.w3.org/2000/svg" viewBox="0 0 103.15 18.88"><g id="Content"><rect y="5.12" width="3.69" height="13.43" style="fill:#b9bab7;"/><rect width="3.69" height="3.04" style="fill:#b9bab7;"/><path d="M18.21,6.27c-.36-.48-.86-.85-1.49-1.12-.63-.27-1.44-.4-2.43-.4-.78,0-1.54.18-2.28.53-.75.35-1.35.92-1.82,1.7h-.08v-1.87h-3.51v13.43h3.69v-7.04c0-1.37.23-2.35.67-2.95.45-.6,1.18-.9,2.18-.9.88,0,1.5.27,1.84.82.35.55.52,1.37.52,2.48v7.58h3.69v-8.26c0-.83-.07-1.59-.22-2.27-.15-.68-.4-1.26-.77-1.74" style="fill:#b9bab7;"/><path d="M33.61,6.27c-.36-.48-.86-.85-1.49-1.12-.63-.27-1.44-.4-2.43-.4-.78,0-1.54.18-2.29.53-.74.35-1.35.92-1.82,1.7h-.08v-1.87h-3.51v13.43h3.69v-7.04c0-1.37.22-2.35.67-2.95.45-.6,1.18-.9,2.18-.9.88,0,1.5.27,1.84.82.35.55.52,1.37.52,2.48v7.58h3.69v-8.26c0-.83-.07-1.59-.22-2.27-.15-.68-.4-1.26-.77-1.74" style="fill:#b9bab7;"/><path d="M48.98,6.69c-.61-.61-1.34-1.09-2.19-1.43-.86-.34-1.81-.51-2.87-.51s-2.01.17-2.86.51c-.85.34-1.58.81-2.18,1.43-.61.62-1.07,1.36-1.4,2.23-.33.87-.49,1.85-.49,2.92s.16,2.04.49,2.91c.33.87.8,1.61,1.4,2.22.61.61,1.33,1.09,2.18,1.42.85.33,1.8.49,2.86.49s2.01-.16,2.87-.49c.86-.33,1.59-.8,2.19-1.42.61-.61,1.07-1.35,1.4-2.22.33-.87.49-1.83.49-2.91s-.17-2.05-.49-2.92c-.33-.87-.8-1.62-1.4-2.23M47.03,13.42c-.1.51-.28.97-.53,1.38-.25.41-.59.73-1.01.97-.42.24-.95.36-1.57.36s-1.14-.12-1.56-.36c-.42-.24-.75-.57-1-.97-.25-.41-.43-.87-.53-1.38-.1-.51-.16-1.03-.16-1.57s.05-1.07.16-1.58c.1-.52.28-.98.53-1.38.25-.4.58-.72,1-.97.42-.25.94-.38,1.56-.38s1.15.13,1.57.38c.42.25.76.58,1.01.97.25.4.43.86.53,1.38.1.52.16,1.05.16,1.58s-.05,1.06-.16,1.57" style="fill:#b9bab7;"/><polygon points="58.26 14.28 58.21 14.28 55.38 5.12 51.51 5.12 56.11 18.54 60.21 18.54 64.75 5.12 61.09 5.12 58.26 14.28" style="fill:#b9bab7;"/><path d="M76.39,5.46c-.57-.28-1.2-.46-1.9-.56-.69-.09-1.38-.14-2.05-.14-.74,0-1.48.07-2.22.22-.74.15-1.4.39-1.99.74-.59.35-1.07.8-1.46,1.38-.38.57-.6,1.29-.65,2.16h3.69c.07-.73.31-1.25.73-1.56.42-.31.99-.47,1.71-.47.33,0,.64.02.92.06.29.04.54.13.75.26.22.13.39.31.52.55.13.23.19.55.19.95.02.38-.09.67-.34.87-.24.2-.57.35-.99.45-.42.1-.89.18-1.43.23-.54.05-1.08.12-1.64.21-.55.09-1.1.2-1.65.35-.55.15-1.03.37-1.46.66-.42.29-.77.69-1.04,1.18-.27.49-.4,1.12-.4,1.88,0,.69.12,1.29.35,1.79.23.5.56.92.97,1.25.42.33.9.57,1.45.73.55.16,1.15.23,1.79.23.83,0,1.64-.12,2.44-.36.8-.24,1.49-.67,2.08-1.27v1.3h3.53v-9.97c0-.81-.18-1.47-.54-1.96-.36-.49-.83-.88-1.4-1.16M74.65,13.35c0,.21-.02.49-.06.83-.04.35-.16.69-.35,1.03-.19.34-.49.63-.88.87-.4.24-.96.36-1.69.36-.29,0-.58-.02-.86-.08-.28-.05-.52-.14-.73-.27-.21-.13-.37-.31-.49-.53-.12-.23-.18-.5-.18-.83,0-.35.06-.63.18-.86.12-.22.28-.41.48-.56.2-.15.43-.26.7-.35.27-.09.54-.16.82-.21.29-.05.59-.1.88-.13.29-.03.58-.08.84-.13.27-.05.52-.12.75-.19.23-.08.43-.19.58-.33v1.38Z" style="fill:#b9bab7;"/><path d="M84.27,7.61h-.05v-2.49h-3.51v13.43h3.69v-6.94c0-2.36,1.2-3.29,4.96-3.29v-3.2c-1.51,0-4.14-.03-5.09,2.49" style="fill:#b9bab7;"/><path d="M97.62,8.31v-3.19h-2.7V1.09l-3.69,1.48v12.94c0,.68.11,1.22.34,1.64.23.42.53.74.92.96.39.22.84.38,1.35.45.51.08,1.05.12,1.62.12.36,0,.73,0,1.12-.03.38-.02.73-.05,1.04-.1v-2.86c-.17.03-.35.06-.55.08-.19.02-.39.03-.6.03-.62,0-1.04-.1-1.25-.31-.21-.21-.31-.62-.31-1.25v-5.92h2.7Z" style="fill:#b9bab7;"/><path d="M101.36,8.76c-.99,0-1.79-.81-1.79-1.8s.79-1.8,1.79-1.8,1.79.81,1.79,1.8-.79,1.8-1.79,1.8M101.36,5.37c-.87,0-1.55.71-1.55,1.59s.68,1.58,1.55,1.58,1.55-.71,1.55-1.58-.68-1.59-1.55-1.59M101.71,7.14l.35.76h-.26l-.32-.72h-.47v.72h-.23v-1.91h.67c.42,0,.64.29.64.6,0,.24-.13.45-.37.55M101.44,6.22h-.44v.73h.43c.29,0,.41-.19.41-.37s-.11-.37-.4-.37" style="fill:#b9bab7;"/></g></svg>